<?xml version="1.0" encoding="UTF-8"?>
<svg version="1.1" xmlns="http://www.w3.org/2000/svg" width="438" height="287">
<path d="M0 0 C4.95 0 9.9 0 15 0 C18.29186868 3.54609221 19.87397024 5.84859703 22 10 C23.28975145 11.99235263 24.60030186 13.97137141 25.9296875 15.9375 C27.24653913 17.95719506 28.56163276 19.97803739 29.875 22 C30.55046875 23.03511719 31.2259375 24.07023437 31.921875 25.13671875 C36.86515828 32.73031656 36.86515828 32.73031656 38 35 C38.33 23.45 38.66 11.9 39 0 C43.62 0 48.24 0 53 0 C53 19.47 53 38.94 53 59 C48.05 59 43.1 59 38 59 C34.17590524 54.85300982 32.05321497 51.95981132 29.5 47.125 C28.22045726 44.89745595 26.93922504 42.67088145 25.65625 40.4453125 C25.11806641 39.45031738 24.57988281 38.45532227 24.02539062 37.43017578 C21.28299806 32.78569465 18.09307971 28.41868531 15 24 C14.67 35.55 14.34 47.1 14 59 C9.38 59 4.76 59 0 59 C0 39.53 0 20.06 0 0 Z " fill="#01BDF1" transform="translate(139,158)"/>
<path d="M0 0 C33.64285714 0 33.64285714 0 39.9375 5.625 C42.4829908 9.79034858 43.47275121 13.12053217 43 18 C41.93942753 20.68089151 40.67468265 22.61484592 39 25 C38.34 25 37.68 25 37 25 C38.0659378 27.48718821 39.06877272 29.06877272 41 31 C44.1241583 34.1241583 45.29669979 36.9041982 45.375 41.3125 C45.25218794 46.29048201 43.91704326 48.97921064 41 53 C35.63641256 58.08853167 31.03124936 59.25540123 23.73046875 59.1953125 C22.48418701 59.19031738 21.23790527 59.18532227 19.95385742 59.18017578 C17.5945105 59.15286377 17.5945105 59.15286377 15.1875 59.125 C7.6696875 59.063125 7.6696875 59.063125 0 59 C0 39.53 0 20.06 0 0 Z M15 11 C15 14.96 15 18.92 15 23 C16.423125 23.061875 17.84625 23.12375 19.3125 23.1875 C20.11300781 23.22230469 20.91351563 23.25710937 21.73828125 23.29296875 C24.06043533 23.18119887 24.06043533 23.18119887 25.76171875 21.67578125 C27.24414997 19.93487552 27.24414997 19.93487552 27.5 17 C27.29869936 13.88273199 27.29869936 13.88273199 24.9375 12.125 C21.45781172 10.79235342 18.69628969 10.78257119 15 11 Z M15 35 C15 39.29 15 43.58 15 48 C16.423125 48.020625 17.84625 48.04125 19.3125 48.0625 C20.11300781 48.07410156 20.91351563 48.08570313 21.73828125 48.09765625 C24.16861334 48.09657855 24.16861334 48.09657855 27 47 C27 46.34 27 45.68 27 45 C27.66 45 28.32 45 29 45 C29 42.36 29 39.72 29 37 C25.78817851 35.09391902 23.46117397 34.77733753 19.75 34.875 C17.39875 34.936875 17.39875 34.936875 15 35 Z " fill="#01BDF1" transform="translate(266,158)"/>
<path d="M0 0 C5.64728597 3.33703262 9.43803968 9.68824128 11.65234375 15.80078125 C13.3797199 26.72789104 13.02508361 37.08429087 6.421875 46.171875 C1.98561083 51.64726412 -2.91673934 55.64603159 -10 57 C-19.86451961 57.75785352 -28.12760255 57.33293215 -36.25 51.33984375 C-42.68413653 45.57987226 -45.44427123 39.08260269 -46.375 30.5703125 C-46.6940734 21.45677843 -45.00595998 14.0099333 -40.3125 6.1875 C-28.78650038 -4.71547261 -14.27347496 -7.67333428 0 0 Z M-26 12 C-26 12.66 -26 13.32 -26 14 C-26.66 14 -27.32 14 -28 14 C-30.03515174 18.22435879 -30.29840709 21.77274825 -30.3125 26.4375 C-30.32925781 27.71496094 -30.34601563 28.99242187 -30.36328125 30.30859375 C-29.86880476 35.33311295 -28.22295371 38.59175028 -24.9375 42.375 C-20.63735309 44.75380468 -16.80822696 44.64162501 -12 44 C-8.31922272 42.59034062 -7.29991593 41.49271902 -5.25 38.125 C-2.21554954 30.53887385 -2.31366481 23.67395639 -5.078125 16.01953125 C-6.28277707 13.3805265 -7.68385242 11.73711069 -10 10 C-15.8547874 8.0484042 -21.11758163 8.03303507 -26 12 Z " fill="#01BDF1" transform="translate(246,161)"/>
<path d="M0 0 C5.94 0 11.88 0 18 0 C20.61272296 7.24787415 23.22141953 14.497173 25.82302856 21.74904346 C27.03119318 25.11624211 28.24111923 28.48278594 29.45507812 31.84790039 C30.85030586 35.71573686 32.23785476 39.58628869 33.625 43.45703125 C34.28121338 45.27120293 34.28121338 45.27120293 34.95068359 47.12202454 C35.35109863 48.24296005 35.75151367 49.36389557 36.1640625 50.51879883 C36.51936035 51.50697098 36.8746582 52.49514313 37.24072266 53.51325989 C38 56 38 56 38 59 C32.72 59 27.44 59 22 59 C19 50.375 19 50.375 19 47 C12.4 47 5.8 47 -1 47 C-1.99 50.96 -2.98 54.92 -4 59 C-9.61 59 -15.22 59 -21 59 C-14.06857943 39.30819773 -7.10549861 19.62983706 0 0 Z M8 17 C7.16112944 19.43572059 6.32873471 21.87333217 5.5 24.3125 C5.26152344 25.00279297 5.02304687 25.69308594 4.77734375 26.40429688 C3.76791737 29.38931489 3 31.82658914 3 35 C6.96 35 10.92 35 15 35 C14.21776638 32.18455608 13.42477877 29.37295854 12.625 26.5625 C12.40328125 25.76005859 12.1815625 24.95761719 11.953125 24.13085938 C11.73398437 23.36708984 11.51484375 22.60332031 11.2890625 21.81640625 C10.99056396 20.75595093 10.99056396 20.75595093 10.68603516 19.67407227 C10.12838023 17.79000373 10.12838023 17.79000373 8 17 Z " fill="#01BDF1" transform="translate(359,158)"/>
<path d="M0 0 C14.85 0 29.7 0 45 0 C45 10.12120183 45 10.12120183 42.54296875 13.25390625 C42.01227783 13.95572021 41.48158691 14.65753418 40.93481445 15.38061523 C40.35820068 16.10063721 39.78158691 16.82065918 39.1875 17.5625 C37.99558237 19.12622355 36.80551495 20.69135891 35.6171875 22.2578125 C35.01358398 23.04188477 34.40998047 23.82595703 33.78808594 24.63378906 C31.00483006 28.31692887 28.40572069 32.11927446 25.8125 35.9375 C25.35576904 36.60531494 24.89903809 37.27312988 24.4284668 37.96118164 C22.60386399 40.63095129 20.79374465 43.30938303 19 46 C31.87 46.495 31.87 46.495 45 47 C45 50.96 45 54.92 45 59 C29.49 59 13.98 59 -2 59 C-2 48.89507154 -2 48.89507154 2.1875 43.5625 C3.10097672 42.36643214 4.01369714 41.16978641 4.92578125 39.97265625 C5.41900879 39.3398877 5.91223633 38.70711914 6.42041016 38.05517578 C9.32955177 34.27014424 12.08967879 30.37648613 14.875 26.5 C15.4218042 25.74662354 15.9686084 24.99324707 16.53198242 24.21704102 C17.0551001 23.49572998 17.57821777 22.77441895 18.1171875 22.03125 C18.57722168 21.39767578 19.03725586 20.76410156 19.51123047 20.11132812 C21.39255466 17.4432908 23.18910954 14.7163357 25 12 C16.75 12 8.5 12 0 12 C0 8.04 0 4.08 0 0 Z " fill="#01BDF1" transform="translate(43,158)"/>
<path d="M0 0 C11.55 0 23.1 0 35 0 C35 3.96 35 7.92 35 12 C28.4 12 21.8 12 15 12 C15 15.63 15 19.26 15 23 C21.27 23 27.54 23 34 23 C34 27.29 34 31.58 34 36 C27.73 36 21.46 36 15 36 C15 39.63 15 43.26 15 47 C21.93 47 28.86 47 36 47 C36 50.96 36 54.92 36 59 C24.12 59 12.24 59 0 59 C0 39.53 0 20.06 0 0 Z " fill="#01BDF1" transform="translate(95,158)"/>
<path d="M0 0 C5.94 0 11.88 0 18 0 C18 5.94 18 11.88 18 18 C16.02 18 14.04 18 12 18 C12.35052181 23.95887074 13.75388419 25.96618998 18 30 C19.42001879 33.4612958 19.12942622 34.66996314 17.75 38.1875 C16 41 16 41 13 43 C7.87572167 43.57854755 7.87572167 43.57854755 5 43 C3.29220027 41.37550757 1.62449243 39.70779973 0 38 C-3.68441504 37.11472891 -3.68441504 37.11472891 -7 37 C-7 38.98 -7 40.96 -7 43 C-12.61 43 -18.22 43 -24 43 C-24 37.06 -24 31.12 -24 25 C-18.39 25 -12.78 25 -7 25 C-7 26.98 -7 28.96 -7 31 C-1.899251 30.65222357 -1.899251 30.65222357 2.3125 28 C2.869375 27.34 3.42625 26.68 4 26 C4.66 25.67 5.32 25.34 6 25 C6.40729228 22.67843403 6.74438677 20.3431213 7 18 C4.69 18 2.38 18 0 18 C0 12.06 0 6.12 0 0 Z " fill="#01BDF1" transform="translate(246,25)"/>
<path d="M0 0 C5.61 0 11.22 0 17 0 C17 5.94 17 11.88 17 18 C15.35 18 13.7 18 12 18 C12.26325199 23.01861731 12.26325199 23.01861731 15 27 C17.85531271 29.85531271 17.93035319 32.03013171 18 36 C16.79752004 38.84797885 15.69646878 40.43250692 13.3125 42.375 C9.76456338 43.33390179 6.53359566 42.93028845 3 42 C1 40.5625 1 40.5625 0 39 C0 38.34 0 37.68 0 37 C-2.64 37 -5.28 37 -8 37 C-8 38.65 -8 40.3 -8 42 C-13.61 42 -19.22 42 -25 42 C-25 36.39 -25 30.78 -25 25 C-19.39 25 -13.78 25 -8 25 C-8 26.98 -8 28.96 -8 31 C-5.36 31 -2.72 31 0 31 C0.2475 30.195625 0.495 29.39125 0.75 28.5625 C2 26 2 26 4.125 25.1875 C4.74375 25.125625 5.3625 25.06375 6 25 C6 22.69 6 20.38 6 18 C4.02 18 2.04 18 0 18 C0 12.06 0 6.12 0 0 Z " fill="#02BEF1" transform="translate(173,99)"/>
<path d="M0 0 C4.95 0 9.9 0 15 0 C15 19.47 15 38.94 15 59 C10.05 59 5.1 59 0 59 C0 39.53 0 20.06 0 0 Z " fill="#01BCF0" transform="translate(319,158)"/>
<path d="M0 0 C5.61 0 11.22 0 17 0 C17 1.98 17 3.96 17 6 C23.27 6 29.54 6 36 6 C36 11.94 36 17.88 36 24 C37.98 24 39.96 24 42 24 C42 29.94 42 35.88 42 42 C36.06 42 30.12 42 24 42 C24 36.06 24 30.12 24 24 C25.98 24 27.96 24 30 24 C30 20.04 30 16.08 30 12 C25.71 12 21.42 12 17 12 C17 13.98 17 15.96 17 18 C11.39 18 5.78 18 0 18 C0 12.06 0 6.12 0 0 Z " fill="#FCFCFC" transform="translate(247,99)"/>
<path d="M0 0 C5.61 0 11.22 0 17 0 C17 5.61 17 11.22 17 17 C15.35 17 13.7 17 12 17 C12 21.62 12 26.24 12 31 C16.29 31 20.58 31 25 31 C25 28.69 25 26.38 25 24 C30.61 24 36.22 24 42 24 C42 29.94 42 35.88 42 42 C36.39 42 30.78 42 25 42 C25 40.02 25 38.04 25 36 C18.73 36 12.46 36 6 36 C6 29.73 6 23.46 6 17 C4.02 17 2.04 17 0 17 C0 11.39 0 5.78 0 0 Z " fill="#01BDF1" transform="translate(148,1)"/>
<path d="M0 0 C5.94 0 11.88 0 18 0 C18 5.94 18 11.88 18 18 C16.02 18 14.04 18 12 18 C12 20.31 12 22.62 12 25 C13.98 25 15.96 25 18 25 C18 30.94 18 36.88 18 43 C12.06 43 6.12 43 0 43 C0 37.06 0 31.12 0 25 C1.98 25 3.96 25 6 25 C6 22.69 6 20.38 6 18 C4.02 18 2.04 18 0 18 C0 12.06 0 6.12 0 0 Z " fill="#FDFDFD" transform="translate(271,25)"/>
<path d="M0 0 C5.61 0 11.22 0 17 0 C17 5.94 17 11.88 17 18 C15.35 18 13.7 18 12 18 C12 20.31 12 22.62 12 25 C13.65 25 15.3 25 17 25 C17 30.94 17 36.88 17 43 C11.39 43 5.78 43 0 43 C0 37.06 0 31.12 0 25 C1.98 25 3.96 25 6 25 C6 22.69 6 20.38 6 18 C4.02 18 2.04 18 0 18 C0 12.06 0 6.12 0 0 Z " fill="#01BDF1" transform="translate(148,74)"/>
<path d="M0 0 C2 2.5 2 2.5 4 5 C7.64182335 5.89055736 7.64182335 5.89055736 11 6 C11 3.69 11 1.38 11 -1 C16.61 -1 22.22 -1 28 -1 C28 4.94 28 10.88 28 17 C22.39 17 16.78 17 11 17 C11 15.35 11 13.7 11 12 C8.36 12 5.72 12 3 12 C2.814375 12.61875 2.62875 13.2375 2.4375 13.875 C1 16 1 16 -2.3125 17.375 C-6.21824679 18.03699098 -7.6369389 17.96178564 -11 16 C-13.04509046 14.34610118 -13.9005553 13.48647274 -14.43359375 10.87890625 C-14.44416082 4.61263561 -14.44416082 4.61263561 -12.1875 1.5 C-7.94263591 -1.41076395 -4.896544 -1.20265993 0 0 Z " fill="#01BDF1" transform="translate(186,75)"/>
<path d="M0 0 C0 1.32 0 2.64 0 4 C-1.65 4 -3.3 4 -5 4 C-5.33 5.32 -5.66 6.64 -6 8 C-3.69 8 -1.38 8 1 8 C1 10.31 1 12.62 1 15 C1.66 12.69 2.32 10.38 3 8 C4.11375 7.87625 5.2275 7.7525 6.375 7.625 C10.03103677 7.3534187 10.03103677 7.3534187 12 5 C12.99 5 13.98 5 15 5 C15.66 6.32 16.32 7.64 17 9 C18.65 8.67 20.3 8.34 22 8 C22 10.31 22 12.62 22 15 C22.66 12.69 23.32 10.38 24 8 C25.32 8 26.64 8 28 8 C28 8.66 28 9.32 28 10 C28.99 9.34 29.98 8.68 31 8 C37.29213483 6.76404494 37.29213483 6.76404494 41 8 C42.32 8 43.64 8 45 8 C45.495 9.485 45.495 9.485 46 11 C45.67 11.66 45.34 12.32 45 13 C44.34 13 43.68 13 43 13 C43.99 15.475 43.99 15.475 45 18 C42.75 19.5625 42.75 19.5625 40 21 C38.68 20.67 37.36 20.34 36 20 C36.33 17.03 36.66 14.06 37 11 C36.34 11 35.68 11 35 11 C34.01 14.3 33.02 17.6 32 21 C30.35 20.67 28.7 20.34 27 20 C24.36195411 20.39397335 24.36195411 20.39397335 22 21 C20.33333333 21 18.66666667 21 17 21 C16.505 20.01 16.505 20.01 16 19 C15.236875 19.33 14.47375 19.66 13.6875 20 C11 21 11 21 8 21 C7.67 20.34 7.34 19.68 7 19 C6.01 19.66 5.02 20.32 4 21 C2.65938457 20.69728039 1.32594105 20.36162029 0 20 C-2.18703385 20.37907282 -2.18703385 20.37907282 -4 21 C-3.90234375 18.98177083 -3.8046875 16.96354167 -3.70703125 14.9453125 C-3.80371094 14.30335938 -3.90039062 13.66140625 -4 13 C-4.99 12.34 -5.98 11.68 -7 11 C-7.08636719 11.65226562 -7.17273438 12.30453125 -7.26171875 12.9765625 C-8.2411567 19.06884625 -9.31045833 22.85575387 -14 27 C-16.8125 27.375 -16.8125 27.375 -19 27 C-19.33 26.01 -19.66 25.02 -20 24 C-17 23 -17 23 -14 24 C-13.01 19.71 -12.02 15.42 -11 11 C-11.99 11 -12.98 11 -14 11 C-13.67 10.01 -13.34 9.02 -13 8 C-12.01 8 -11.02 8 -10 8 C-9.62875 6.8553125 -9.62875 6.8553125 -9.25 5.6875 C-7.07342184 1.00785695 -5.12646086 0 0 0 Z M7 11 C6.34 12.98 5.68 14.96 5 17 C6.32 16.34 7.64 15.68 9 15 C9 13.68 9 12.36 9 11 C8.34 11 7.68 11 7 11 Z M13 11 C12.67 12.98 12.34 14.96 12 17 C12.99 16.67 13.98 16.34 15 16 C15.66 16.33 16.32 16.66 17 17 C17.33 15.35 17.66 13.7 18 12 C16.35 11.67 14.7 11.34 13 11 Z M27 11 C26.67 12.65 26.34 14.3 26 16 C26.99 16 27.98 16 29 16 C29.33 15.01 29.66 14.02 30 13 C29.01 12.34 28.02 11.68 27 11 Z M40 15 C40 15.66 40 16.32 40 17 C40.99 16.67 41.98 16.34 43 16 C42.01 15.67 41.02 15.34 40 15 Z " fill="#01BAED" transform="translate(179,260)"/>
<path d="M0 0 C3.39326343 0.85688471 4.91773183 2.73937864 6.93359375 5.48828125 C8.35361254 8.94957705 8.06301997 10.15824439 6.68359375 13.67578125 C4.93359375 16.48828125 4.93359375 16.48828125 1.93359375 18.48828125 C1.20015947 21.55384723 1.20015947 21.55384723 0.93359375 24.48828125 C2.91359375 24.48828125 4.89359375 24.48828125 6.93359375 24.48828125 C6.93359375 30.42828125 6.93359375 36.36828125 6.93359375 42.48828125 C1.32359375 42.48828125 -4.28640625 42.48828125 -10.06640625 42.48828125 C-10.06640625 36.54828125 -10.06640625 30.60828125 -10.06640625 24.48828125 C-8.08640625 24.48828125 -6.10640625 24.48828125 -4.06640625 24.48828125 C-4.17433446 21.58399195 -4.17433446 21.58399195 -5.06640625 18.48828125 C-7.49313192 16.69859099 -7.49313192 16.69859099 -10.06640625 15.48828125 C-11.68229004 12.25651368 -11.64092032 8.98212842 -11.06640625 5.48828125 C-8.05257829 0.96753931 -5.26447062 -0.34831091 0 0 Z " fill="#FBFBFB" transform="translate(232.06640625,98.51171875)"/>
<path d="M0 0 C5.61 0 11.22 0 17 0 C17 5.94 17 11.88 17 18 C15.35 18 13.7 18 12 18 C12.11406002 20.86136296 12.11406002 20.86136296 13 24 C13.825 24.66 14.65 25.32 15.5 26 C18 28 18 28 18.9375 30.9375 C19.02456823 35.20384318 18.22726785 37.68182342 15.3125 40.8125 C12.0630442 42.48113946 9.60420397 42.32180393 6 42 C2.61968411 40.81232145 2.06783183 40.10174775 0 37 C-0.79049034 29.99851412 -0.79049034 29.99851412 2.375 26 C5 24 5 24 7 24 C7 22.02 7 20.04 7 18 C4.69 18 2.38 18 0 18 C0 12.06 0 6.12 0 0 Z " fill="#01BCF0" transform="translate(197,1)"/>
<path d="M0 0 C16.5 0 16.5 0 21 4 C24.6592407 9.63470035 24.82766844 16.50740093 24 23 C23.09256367 26.28823702 22.08615042 29.28023369 20 32 C15 34 15 34 0 34 C0 22.78 0 11.56 0 0 Z M8 8 C8 14.27 8 20.54 8 27 C11.465 26.505 11.465 26.505 15 26 C17.40508533 20.62392691 17.26322277 15.66412791 16 10 C15.34 9.34 14.68 8.68 14 8 C12.02 8 10.04 8 8 8 Z " fill="#F7F7F7" transform="translate(0,223)"/>
<path d="M0 0 C2.79332206 1.35891344 3.8774739 2.55909498 6 5 C6.875 8.3125 6.875 8.3125 7 11 C4.69 11.33 2.38 11.66 0 12 C0 11.01 0 10.02 0 9 C-0.66 9 -1.32 9 -2 9 C-2 8.34 -2 7.68 -2 7 C-4.31 7.33 -6.62 7.66 -9 8 C-9.88327729 11.0526063 -10.1633007 13.82505177 -10.1875 17 C-10.20167969 17.845625 -10.21585938 18.69125 -10.23046875 19.5625 C-9.98543096 22.15408616 -9.30584901 23.77024992 -8 26 C-5.36 26 -2.72 26 0 26 C0 24.68 0 23.36 0 22 C-1.98 22 -3.96 22 -6 22 C-6 19.69 -6 17.38 -6 15 C-1.38 15 3.24 15 8 15 C8.37062824 28.46615933 8.37062824 28.46615933 6.72265625 30.83984375 C2.473136 33.70176555 -1.55990796 35 -6.6875 35 C-11.55168672 33.53156627 -13.71327128 30.78833483 -16.61328125 26.7578125 C-19.42871371 21.15867076 -19.09854075 13.57321052 -17.2734375 7.63671875 C-13.52937233 0.52908283 -7.57011906 -1.41025065 0 0 Z " fill="#FBFBFB" transform="translate(54,223)"/>
<path d="M0 0 C2.31 0 4.62 0 7 0 C9.31 4.95 11.62 9.9 14 15 C14.33 10.05 14.66 5.1 15 0 C17.31 0 19.62 0 22 0 C22 11.22 22 22.44 22 34 C19.69 34 17.38 34 15 34 C12.36 28.72 9.72 23.44 7 18 C6.67 23.28 6.34 28.56 6 34 C4.02 34 2.04 34 0 34 C0 22.78 0 11.56 0 0 Z " fill="#FDFDFD" transform="translate(250,223)"/>
<path d="M0 0 C7.26 0 14.52 0 22 0 C22 2.64 22 5.28 22 8 C17.38 8 12.76 8 8 8 C8 9.65 8 11.3 8 13 C12.29 13 16.58 13 21 13 C21 15.31 21 17.62 21 20 C16.71 20 12.42 20 8 20 C8 22.31 8 24.62 8 27 C12.62 27 17.24 27 22 27 C22 29.31 22 31.62 22 34 C14.74 34 7.48 34 0 34 C0 22.78 0 11.56 0 0 Z " fill="#F8F8F8" transform="translate(173,223)"/>
<path d="M0 0 C3.73910024 1.46312618 4.75718969 2.5897343 6.8125 6.0625 C8 9 8 9 8 11 C5.69 11.33 3.38 11.66 1 12 C0.608125 11.34 0.21625 10.68 -0.1875 10 C-1.85416667 7.70833333 -1.85416667 7.70833333 -4.6875 7.75 C-5.8321875 7.87375 -5.8321875 7.87375 -7 8 C-11.03356644 13.80833568 -9.908709 19.23394985 -9 26 C-5.7 26 -2.4 26 1 26 C1 24.68 1 23.36 1 22 C-0.98 22 -2.96 22 -5 22 C-5 19.69 -5 17.38 -5 15 C-0.71 15 3.58 15 8 15 C8.10823773 17.24893954 8.18569645 19.49937575 8.25 21.75 C8.29640625 23.00296875 8.3428125 24.2559375 8.390625 25.546875 C8 29 8 29 6.25390625 31.36328125 C2.71040359 33.93646602 -0.65131161 34.76493576 -5 35 C-11.28170848 33.24935993 -14.0906572 30.34134989 -17.25 24.8125 C-18.81659155 18.93778167 -18.88898647 13.20564884 -16.3125 7.625 C-12.25881761 0.67180867 -7.83215708 -1.15346313 0 0 Z " fill="#FCFCFC" transform="translate(371,223)"/>
<path d="M0 0 C4.35599176 2.55677777 7.10993056 6.01455877 8.5625 10.88671875 C9.92276786 17.45729834 9.29592494 23.09006562 6 29 C3.3407133 32.39797745 1.77623166 33.77000543 -2.375 35 C-6.73444603 35 -9.21339062 34.1433638 -13 32 C-18.28276602 26.43919367 -18.26733562 21.62884516 -18.234375 14.25390625 C-17.93963054 10.16187065 -16.98286572 7.55263441 -15 4 C-14.34 4 -13.68 4 -13 4 C-13 3.34 -13 2.68 -13 2 C-8.68158408 -0.44808159 -4.87528887 -0.70643721 0 0 Z M-8.6875 8.3125 C-11.79372001 12.30621144 -11.454815 17.19075251 -11 22 C-10.09819664 25.09355658 -10.09819664 25.09355658 -8 27 C-5 27.75 -5 27.75 -2 27 C1.12871287 23.87128713 1.43208153 21.33477659 1.4375 17 C1.45683594 15.96875 1.47617187 14.9375 1.49609375 13.875 C0.88092856 10.30994819 -0.10266656 9.11826135 -3 7 C-6.83007001 6.59070626 -6.83007001 6.59070626 -8.6875 8.3125 Z " fill="#FAFAFA" transform="translate(343,223)"/>
<path d="M0 0 C4.59440744 2.69671741 7.20865605 6.26626634 8.6875 11.375 C9.45834067 17.85006165 9.21488617 23.25655167 6 29 C3.48404664 32.00578499 0.79914902 33.72794927 -2.9375 35 C-6.9973404 35 -9.46052072 33.96637738 -13 32 C-18.40555057 26.30994677 -18.39854122 21.10655946 -18.3515625 13.53515625 C-17.87793117 8.77253008 -16.43210126 5.3598465 -13 2 C-8.840852 -0.58981999 -4.76912494 -0.69105388 0 0 Z M-8.6875 8.375 C-11.96517696 12.43307623 -11.4232416 17.00731671 -11 22 C-10.11672853 25.14939462 -10.11672853 25.14939462 -8 27 C-5 27.75 -5 27.75 -2 27 C1.12871287 23.87128713 1.43208153 21.33477659 1.4375 17 C1.45683594 15.96875 1.47617187 14.9375 1.49609375 13.875 C0.88092856 10.30994819 -0.10266656 9.11826135 -3 7 C-6.8459699 6.5788847 -6.8459699 6.5788847 -8.6875 8.375 Z " fill="#FBFBFB" transform="translate(293,223)"/>
<path d="M0 0 C6.93 0 13.86 0 21 0 C21 2.64 21 5.28 21 8 C16.38 8 11.76 8 7 8 C7 9.65 7 11.3 7 13 C11.29 13 15.58 13 20 13 C20 15.31 20 17.62 20 20 C15.71 20 11.42 20 7 20 C7 22.31 7 24.62 7 27 C11.95 27 16.9 27 22 27 C22 29.31 22 31.62 22 34 C14.74 34 7.48 34 0 34 C0 22.78 0 11.56 0 0 Z " fill="#FDFDFD" transform="translate(392,223)"/>
<path d="M0 0 C2.31 0 4.62 0 7 0 C7 4.29 7 8.58 7 13 C9.64 13 12.28 13 15 13 C15 8.71 15 4.42 15 0 C17.31 0 19.62 0 22 0 C22 11.22 22 22.44 22 34 C19.69 34 17.38 34 15 34 C15 29.38 15 24.76 15 20 C12.36 20 9.72 20 7 20 C7 24.62 7 29.24 7 34 C4.69 34 2.38 34 0 34 C0 22.78 0 11.56 0 0 Z " fill="#FDFDFD" transform="translate(224,223)"/>
<path d="M0 0 C2.52031428 2.05358942 3.47327339 4.4001448 4.6875 7.375 C4.6875 8.365 4.6875 9.355 4.6875 10.375 C2.3775 10.705 0.0675 11.035 -2.3125 11.375 C-2.539375 10.735625 -2.76625 10.09625 -3 9.4375 C-4.16500896 7.10306339 -4.16500896 7.10306339 -6.9375 6.625 C-7.72125 6.5425 -8.505 6.46 -9.3125 6.375 C-9.3125 7.695 -9.3125 9.015 -9.3125 10.375 C-8.69761719 10.57996094 -8.08273437 10.78492188 -7.44921875 10.99609375 C2.6875 14.375 2.6875 14.375 4.4375 17.5625 C5.83670822 21.18267364 5.91356377 23.61507109 4.6875 27.375 C2.88318095 30.21035851 1.30407032 31.96982522 -1.5 33.8125 C-5.74555659 34.66161132 -9.33541447 34.07416527 -13.3125 32.375 C-16.0639803 29.35508259 -17.20847836 27.57124891 -17.5625 23.5 C-17.48 22.79875 -17.3975 22.0975 -17.3125 21.375 C-13.8475 20.88 -13.8475 20.88 -10.3125 20.375 C-9.6525 22.025 -8.9925 23.675 -8.3125 25.375 C-6.6625 25.375 -5.0125 25.375 -3.3125 25.375 C-3.3125 24.055 -3.3125 22.735 -3.3125 21.375 C-3.91578125 21.13265625 -4.5190625 20.8903125 -5.140625 20.640625 C-14.06035802 16.9000918 -14.06035802 16.9000918 -16.3125 13.375 C-16.92339984 8.56416379 -17.05107492 6.5321007 -14.4375 2.4375 C-10.33495832 -1.54437869 -5.32077706 -1.43804786 0 0 Z " fill="#FBFBFB" transform="translate(432.3125,223.625)"/>
<path d="M0 0 C2.64 0 5.28 0 8 0 C9.42976783 4.35813007 10.85377068 8.71808526 12.27246094 13.07983398 C12.75590503 14.56342333 13.24092125 16.04650134 13.72753906 17.52905273 C14.42666824 19.65996993 15.12012543 21.79266126 15.8125 23.92578125 C16.03123779 24.58838455 16.24997559 25.25098785 16.4753418 25.93367004 C17.38547586 28.75405555 18 31.01399134 18 34 C15.69 34 13.38 34 11 34 C9.5393715 31.35261084 9 30.10551666 9 27 C5.7 27 2.4 27 -1 27 C-1.33 29.31 -1.66 31.62 -2 34 C-4.64 34 -7.28 34 -10 34 C-7.92845785 26.21995228 -5.67698847 18.50819422 -3.3125 10.8125 C-2.99216797 9.76513672 -2.67183594 8.71777344 -2.34179688 7.63867188 C-1.56267541 5.09199125 -0.78205799 2.54578006 0 0 Z M3 14 C2.67 15.65 2.34 17.3 2 19 C3.32 19 4.64 19 6 19 C5.67 17.35 5.34 15.7 5 14 C4.34 14 3.68 14 3 14 Z " fill="#FBFBFB" transform="translate(101,223)"/>
<path d="M0 0 C4.20221839 3.03990266 5.72830361 6.0288232 7 11 C4.69 11.66 2.38 12.32 0 13 C-0.99 11.35 -1.98 9.7 -3 8 C-4.65 8.33 -6.3 8.66 -8 9 C-9.02232879 12.06698637 -9.1659049 14.28664878 -9.1875 17.5 C-9.20167969 18.4590625 -9.21585938 19.418125 -9.23046875 20.40625 C-9.18755111 23.23746139 -9.18755111 23.23746139 -7 26 C-4.43717258 26.72965366 -4.43717258 26.72965366 -2 27 C-1.01 23.535 -1.01 23.535 0 20 C2.31 20.66 4.62 21.32 7 22 C6.73290484 25.82836401 6.23114937 27.70941223 3.8125 30.75 C0.75402488 33.19678009 -1.12946698 34.38071472 -5 35 C-10.21769078 33.47067684 -12.99450497 31.50824255 -16 27 C-18.51549235 21.96901529 -17.89442519 12.89645464 -16.24609375 7.55859375 C-12.43007406 0.62989917 -7.65333093 -1.44866621 0 0 Z " fill="#FAFAFA" transform="translate(214,223)"/>
<path d="M0 0 C7.26 0 14.52 0 22 0 C22 2.64 22 5.28 22 8 C19.69 8 17.38 8 15 8 C15 16.58 15 25.16 15 34 C12.36 34 9.72 34 7 34 C7 25.42 7 16.84 7 8 C4.69 8 2.38 8 0 8 C0 5.36 0 2.72 0 0 Z " fill="#F6F6F6" transform="translate(73,223)"/>
<path d="M0 0 C0.99 0.33 1.98 0.66 3 1 C2.49357604 5.35524603 1.78047029 8.5483817 -1 12 C-4.1875 13.3125 -4.1875 13.3125 -7 14 C-7 13.34 -7 12.68 -7 12 C-7.99 12 -8.98 12 -10 12 C-10 12.66 -10 13.32 -10 14 C-11.32 13.67 -12.64 13.34 -14 13 C-14 10.69 -14 8.38 -14 6 C-14.66 6 -15.32 6 -16 6 C-16.2475 6.763125 -16.495 7.52625 -16.75 8.3125 C-18.17432882 11.37480696 -18.96580319 12.52390425 -22 14 C-24.34360915 13.74889902 -26.67968195 13.41434251 -29 13 C-31.32158065 13.34659295 -31.32158065 13.34659295 -33 14 C-33 11.69 -33 9.38 -33 7 C-33.66 9.31 -34.32 11.62 -35 14 C-36.32 14 -37.64 14 -39 14 C-38.70703125 12.01432292 -38.4140625 10.02864583 -38.12109375 8.04296875 C-37.86095201 5.7974658 -37.86095201 5.7974658 -39 3 C-35.79619983 0.86413322 -34.98060033 0.76867825 -31.3125 0.875 C-30.10013672 0.90207031 -30.10013672 0.90207031 -28.86328125 0.9296875 C-27.94095703 0.96449219 -27.94095703 0.96449219 -27 1 C-27.185625 2.134375 -27.37125 3.26875 -27.5625 4.4375 C-27.7790625 6.2009375 -27.7790625 6.2009375 -28 8 C-27.67 8.33 -27.34 8.66 -27 9 C-26.896875 8.236875 -26.79375 7.47375 -26.6875 6.6875 C-25.93875261 3.76057838 -25.48307071 2.68494084 -23 1 C-20.17405433 0.72429798 -18.54867169 0.72566416 -16 2 C-15.34 1.67 -14.68 1.34 -14 1 C-12.00043389 0.95834237 -9.99956611 0.95834237 -8 1 C-7.34 1 -6.68 1 -6 1 C-5.01 1 -4.02 1 -3 1 C-3 3.31 -3 5.62 -3 8 C-2.34 8 -1.68 8 -1 8 C-1.020625 6.865625 -1.04125 5.73125 -1.0625 4.5625 C-1 1 -1 1 0 0 Z M-9 3 C-10.29633621 4.06645115 -10.29633621 4.06645115 -10.0625 6.5625 C-10.041875 7.366875 -10.02125 8.17125 -10 9 C-9.34 8.67 -8.68 8.34 -8 8 C-8 6.35 -8 4.7 -8 3 C-8.33 3 -8.66 3 -9 3 Z M-22 4 C-23.35618499 5.12534105 -23.35618499 5.12534105 -23.0625 8.0625 C-23.041875 9.031875 -23.02125 10.00125 -23 11 C-22.34 11 -21.68 11 -21 11 C-20.67 8.69 -20.34 6.38 -20 4 C-20.66 4 -21.32 4 -22 4 Z " fill="#01BAED" transform="translate(290,267)"/>
<path d="M0 0 C7.26 0 14.52 0 22 0 C22 2.64 22 5.28 22 8 C19.36 8 16.72 8 14 8 C14 16.58 14 25.16 14 34 C11.69 34 9.38 34 7 34 C7 25.42 7 16.84 7 8 C4.69 8 2.38 8 0 8 C0 5.36 0 2.72 0 0 Z " fill="#FCFCFC" transform="translate(150,223)"/>
<path d="M0 0 C5.61 0 11.22 0 17 0 C17 5.94 17 11.88 17 18 C15.35 18 13.7 18 12 18 C12 20.31 12 22.62 12 25 C10.02 25 8.04 25 6 25 C6 22.69 6 20.38 6 18 C4.02 18 2.04 18 0 18 C0 12.06 0 6.12 0 0 Z " fill="#01BDF1" transform="translate(173,99)"/>
<path d="M0 0 C5.61 0 11.22 0 17 0 C17 1.98 17 3.96 17 6 C19.31 6 21.62 6 24 6 C24 7.98 24 9.96 24 12 C21.69 12 19.38 12 17 12 C17 13.98 17 15.96 17 18 C11.39 18 5.78 18 0 18 C0 12.06 0 6.12 0 0 Z " fill="#01BDF1" transform="translate(222,50)"/>
<path d="M0 0 C5.94 0 11.88 0 18 0 C18 5.94 18 11.88 18 18 C12.06 18 6.12 18 0 18 C0 12.06 0 6.12 0 0 Z " fill="#FDFDFD" transform="translate(246,74)"/>
<path d="M0 0 C2.31 0 4.62 0 7 0 C7 8.58 7 17.16 7 26 C11.29 26 15.58 26 20 26 C20 28.31 20 30.62 20 33 C13.4 33 6.8 33 0 33 C0 22.11 0 11.22 0 0 Z " fill="#FDFDFD" transform="translate(304,224)"/>
<path d="M0 0 C2.31 0 4.62 0 7 0 C7 8.58 7 17.16 7 26 C11.29 26 15.58 26 20 26 C20 28.31 20 30.62 20 33 C13.4 33 6.8 33 0 33 C0 22.11 0 11.22 0 0 Z " fill="#FDFDFD" transform="translate(120,224)"/>
<path d="M0 0 C0.33 1.32 0.66 2.64 1 4 C-0.65 4 -2.3 4 -4 4 C-4 5.32 -4 6.64 -4 8 C-2.68 8 -1.36 8 0 8 C0 9.98 0 11.96 0 14 C0.37125 13.195625 0.7425 12.39125 1.125 11.5625 C3 9 3 9 6.1875 8.1875 C7.115625 8.125625 8.04375 8.06375 9 8 C9.625 9.8125 9.625 9.8125 10 12 C9.01 13.485 9.01 13.485 8 15 C8 16.32 8 17.64 8 19 C4.25686988 21.49542008 3.26097838 20.78262868 -1 20 C-3.27650745 20.3577614 -3.27650745 20.3577614 -5 21 C-5.98120464 17.94736336 -5.98120464 16.05263664 -5 13 C-7.00808464 15.00808464 -7.27108756 18.32732107 -8 21 C-8.61875 20.835 -9.2375 20.67 -9.875 20.5 C-13.16673441 19.72547426 -15.7222975 20.30995737 -19 21 C-19.125 14.375 -19.125 14.375 -18 11 C-18.66 11 -19.32 11 -20 11 C-18.85900474 7.57701423 -17.99914379 6.85241234 -15 5 C-14.01 5 -13.02 5 -12 5 C-11.67 6.98 -11.34 8.96 -11 11 C-11.99 11 -12.98 11 -14 11 C-14 12.65 -14 14.3 -14 16 C-13.01 15.67 -12.02 15.34 -11 15 C-10.1533562 12.56602105 -10.1533562 12.56602105 -9.625 9.6875 C-8.67927394 5.85482069 -8.24156327 4.25968052 -5.5 1.3125 C-3 0 -3 0 0 0 Z M5 15 C4.67 15.66 4.34 16.32 4 17 C4.99 16.67 5.98 16.34 7 16 C6.34 15.67 5.68 15.34 5 15 Z " fill="#01B9EC" transform="translate(150,260)"/>
<path d="M0 0 C5.61 0 11.22 0 17 0 C17 5.94 17 11.88 17 18 C11.39 18 5.78 18 0 18 C0 12.06 0 6.12 0 0 Z " fill="#FDFDFD" transform="translate(247,123)"/>
<path d="M0 0 C5.61 0 11.22 0 17 0 C17 5.94 17 11.88 17 18 C11.39 18 5.78 18 0 18 C0 12.06 0 6.12 0 0 Z " fill="#FDFDFD" transform="translate(198,99)"/>
<path d="M0 0 C5.61 0 11.22 0 17 0 C17 5.94 17 11.88 17 18 C11.39 18 5.78 18 0 18 C0 12.06 0 6.12 0 0 Z " fill="#FDFDFD" transform="translate(271,74)"/>
<path d="M0 0 C5.61 0 11.22 0 17 0 C17 5.94 17 11.88 17 18 C11.39 18 5.78 18 0 18 C0 12.06 0 6.12 0 0 Z " fill="#FDFDFD" transform="translate(222,74)"/>
<path d="M0 0 C5.61 0 11.22 0 17 0 C17 5.94 17 11.88 17 18 C11.39 18 5.78 18 0 18 C0 12.06 0 6.12 0 0 Z " fill="#01BDF1" transform="translate(197,50)"/>
<path d="M0 0 C5.61 0 11.22 0 17 0 C17 5.94 17 11.88 17 18 C11.39 18 5.78 18 0 18 C0 12.06 0 6.12 0 0 Z " fill="#01BDF1" transform="translate(173,50)"/>
<path d="M0 0 C5.61 0 11.22 0 17 0 C17 5.94 17 11.88 17 18 C11.39 18 5.78 18 0 18 C0 12.06 0 6.12 0 0 Z " fill="#01BDF1" transform="translate(148,50)"/>
<path d="M0 0 C5.61 0 11.22 0 17 0 C17 5.94 17 11.88 17 18 C11.39 18 5.78 18 0 18 C0 12.06 0 6.12 0 0 Z " fill="#01BDF1" transform="translate(222,25)"/>
<path d="M0 0 C5.94 0 11.88 0 18 0 C18 5.61 18 11.22 18 17 C12.06 17 6.12 17 0 17 C0 11.39 0 5.78 0 0 Z " fill="#01BDF1" transform="translate(222,1)"/>
<path d="M0 0 C5.61 0 11.22 0 17 0 C17 5.61 17 11.22 17 17 C11.39 17 5.78 17 0 17 C0 11.39 0 5.78 0 0 Z " fill="#FDFDFD" transform="translate(198,124)"/>
<path d="M0 0 C5.61 0 11.22 0 17 0 C17 5.61 17 11.22 17 17 C11.39 17 5.78 17 0 17 C0 11.39 0 5.78 0 0 Z " fill="#FDFDFD" transform="translate(271,1)"/>
<path d="M0 0 C5.61 0 11.22 0 17 0 C17 5.61 17 11.22 17 17 C11.39 17 5.78 17 0 17 C0 11.39 0 5.78 0 0 Z " fill="#01BDF1" transform="translate(173,1)"/>
<path d="M0 0 C2.96593118 2.25668676 4.58516544 3.98884076 6 7.4375 C6 10.96214508 4.84564944 13.03377769 3 16 C-0.69329658 18.46219772 -3.7149344 18.79198683 -8 18 C-10.99380345 16.00413103 -12.63808488 14.61740829 -13.44140625 11.02734375 C-13.64808593 7.46045243 -13.30903079 5.40174002 -11.125 2.5625 C-7.30491164 -0.2463885 -4.75836021 -0.48390104 0 0 Z " fill="#F5F8F9" transform="translate(259,50)"/>
<path d="M0 0 C1.17369141 0.10054687 1.17369141 0.10054687 2.37109375 0.203125 C5.00016628 0.85922153 5.93917557 1.60046032 7.5625 3.75 C8.88967691 8.80986198 9.18353248 10.59073937 6.6875 15.25 C4.29602711 17.70176213 2.39131087 18.20683582 -1 18.375 C-4.24548901 18.15899408 -5.26107724 17.88231707 -7.9375 15.875 C-10.4551921 12.30826952 -10.86775391 10.13858992 -10.4375 5.75 C-7.32724661 1.08461992 -5.55295471 -0.54708913 0 0 Z " fill="#01BCEF" transform="translate(256.4375,0.25)"/>
<path d="M0 0 C2.64 0 5.28 0 8 0 C8 11.22 8 22.44 8 34 C5.36 34 2.72 34 0 34 C0 22.78 0 11.56 0 0 Z " fill="#DDDDDD" transform="translate(64,223)"/>
<path d="M0 0 C3.40066339 2.12541462 3.88251741 3.5692305 4.9375 7.4375 C5.00779003 11.44403151 4.53249114 12.94354518 2 16 C-0.64942653 18.15879198 -2.78316283 18.09478727 -6.0625 17.8125 C-8.46887781 17.53999272 -9.74614679 17.18346664 -11.71875 15.7578125 C-14.232801 12.30865716 -13.57120501 8.05821236 -13 4 C-10.2035791 -1.10650772 -5.25503901 -0.93701982 0 0 Z " fill="#F9FAFA" transform="translate(186,124)"/>
<path d="M0 0 C2.31 0 4.62 0 7 0 C7 11.22 7 22.44 7 34 C4.69 34 2.38 34 0 34 C0 22.78 0 11.56 0 0 Z " fill="#FDFDFD" transform="translate(382,223)"/>
<path d="M0 0 C2.31 0 4.62 0 7 0 C7 11.22 7 22.44 7 34 C4.69 34 2.38 34 0 34 C0 22.78 0 11.56 0 0 Z " fill="#FDFDFD" transform="translate(26,223)"/>
<path d="M0 0 C-0.66 2.64 -1.32 5.28 -2 8 C-0.68 8 0.64 8 2 8 C2 8.66 2 9.32 2 10 C2.66 10 3.32 10 4 10 C3.484375 9.2575 2.96875 8.515 2.4375 7.75 C1 5 1 5 1.3125 2.6875 C1.539375 2.130625 1.76625 1.57375 2 1 C3.98 0.67 5.96 0.34 8 0 C8 1.32 8 2.64 8 4 C7.01 4.495 7.01 4.495 6 5 C6.350625 5.598125 6.70125 6.19625 7.0625 6.8125 C8 9 8 9 7 12 C1.375 13.125 1.375 13.125 -2 12 C-4.14255793 12.38932856 -4.14255793 12.38932856 -6 13 C-7.10844919 9.67465243 -6.84454356 7.37817425 -6 4 C-6.66 4 -7.32 4 -8 4 C-8 3.34 -8 2.68 -8 2 C-4.77208445 -0.1519437 -3.71599191 -0.20086443 0 0 Z " fill="#01B8EB" transform="translate(237,268)"/>
<path d="M0 0 C0.99 0 1.98 0 3 0 C3.33 0.99 3.66 1.98 4 3 C2.02 3.99 2.02 3.99 0 5 C-0.5625 3.0625 -0.5625 3.0625 -1 1 C-0.67 0.67 -0.34 0.34 0 0 Z " fill="#01B7EC" transform="translate(304,276)"/>
<path d="M0 0 C0.99 0 1.98 0 3 0 C3.33 0.99 3.66 1.98 4 3 C2.02 3.99 2.02 3.99 0 5 C-0.33 4.01 -0.66 3.02 -1 2 C-0.67 1.34 -0.34 0.68 0 0 Z " fill="#01AFDF" transform="translate(298,276)"/>
<path d="M0 0 C0.99 0 1.98 0 3 0 C3.33 0.99 3.66 1.98 4 3 C3.01 3.66 2.02 4.32 1 5 C0.34 4.01 -0.32 3.02 -1 2 C-0.67 1.34 -0.34 0.68 0 0 Z " fill="#01B9EA" transform="translate(292,276)"/>
<path d="M0 0 C-0.33 1.32 -0.66 2.64 -1 4 C-1.99 4 -2.98 4 -4 4 C-4 3.01 -4 2.02 -4 1 C-2 0 -2 0 0 0 Z " fill="#01BDF1" transform="translate(238,262)"/>
</svg>
